<svg width="96" height="33" viewBox="0 0 96 33" fill="none" xmlns="http://www.w3.org/2000/svg">
<path fill-rule="evenodd" clip-rule="evenodd" d="M1.83049 26.3019L9.5362 26.1955L9.55815 26.1494L1.25467 24.7855L1.2123 24.6211L8.17475 24.5189C8.17475 24.5189 8.11706 24.377 7.93942 24.025L0.775837 22.8544L0.751334 22.6899L7.45344 22.5909L7.34879 22.1111L0.552757 21.0699L0.5451 20.8672L7.14715 20.7698L7.0961 20.2706L0.496094 19.1576L0.507324 18.9921L7.09814 18.8946C7.06394 18.7014 7.11907 18.3106 7.11907 18.3106L0.600742 17.2924L0.62984 17.1259L7.21606 17.0473C7.21504 16.9509 7.25333 16.5963 7.25333 16.5963L0.84271 15.4152L0.871808 15.2492L7.52031 15.1507C7.52031 15.1507 7.5637 14.7767 7.63976 14.5824L1.2317 13.5789L1.27866 13.4123L7.94095 13.3138C7.94095 13.3138 8.07929 12.9179 8.15586 12.7717L1.7774 11.7844L1.82437 11.6367L8.59896 11.5367C8.59896 11.5367 8.79498 11.1182 8.84042 11.005L2.51096 9.99991L2.5763 9.85168L9.47137 9.75007C9.47137 9.75007 9.65616 9.37767 9.82564 9.11735L3.50283 8.11275L3.56766 7.98285L10.6587 7.89643C10.6587 7.89643 10.8721 7.55179 11.0585 7.37213L4.66672 6.38953L4.78567 6.24078L12.0355 6.13393C12.0355 6.13393 12.3183 5.81757 12.5205 5.65363L6.23594 4.66946L6.33702 4.52071L13.7242 4.40548L14.2071 3.96603L8.48257 2.69692L8.46878 2.69849C10.9257 1.10098 13.9748 0.135667 17.6488 0.085385C24.4785 -0.00941822 30.2454 3.45954 30.4378 11.6048L21.5585 11.7273C21.2645 8.83975 19.5865 7.85558 17.196 7.88857C12.0309 7.95981 9.80012 13.6417 9.87056 19.0298C9.91906 22.7083 11.4878 25.1401 15.2868 25.0867C17.8055 25.0521 19.9276 24.1036 20.8337 21.5502L16.565 21.6083L17.8433 14.8883L30.3077 14.716L27.0334 31.977L21.0996 32.0587L21.3161 29.0339L21.2298 28.9469C19.3022 31.6894 16.2858 32.87 13.0417 32.915C6.70048 33.003 3.4186 29.7844 1.83968 26.3281L1.83049 26.3019ZM47.5706 14.9553C46.6609 14.4043 45.5338 14.0246 44.0825 14.0419C42.2754 14.0628 40.3126 14.8165 40.3391 17.1479C40.3759 20.4345 46.8922 20.3858 46.9499 25.5262C46.983 28.4755 45.0218 31.8424 40.4223 31.8963C38.2048 31.923 36.6111 31.4359 35.071 30.8357L35.9184 28.2414C37.0486 28.9584 38.6152 29.4456 39.9568 29.4304C42.8589 29.3958 44.0702 27.5275 44.0513 25.898C44.0069 21.9095 37.4988 22.6889 37.4376 17.2395C37.3972 13.6716 40.5505 11.6116 43.6991 11.5744C45.2867 11.5555 46.8508 11.8462 48.3088 12.447L47.5706 14.9553ZM58.5138 31.0923C57.1758 31.4453 55.7827 31.7146 54.3871 31.7308C50.9924 31.7706 47.9371 30.403 47.88 25.3465C47.8355 21.3857 50.4946 16.7749 55.4228 16.7163C58.79 16.6765 60.7022 18.7328 60.741 22.1321C60.7512 23.0864 60.6512 23.903 60.5235 24.7468L50.6947 24.8636C50.6437 25.1608 50.6196 25.4622 50.6228 25.764C50.6565 28.7694 52.4733 29.6184 54.9649 29.5891C56.2513 29.5739 57.6439 29.2209 58.8972 28.6714L58.5138 31.0923ZM58.0921 22.8093C58.1432 22.3877 58.1661 22.0504 58.1621 21.7126C58.1442 20.0276 57.1171 18.8318 55.1732 18.8543C53.0654 18.8789 51.4712 20.7808 50.9479 22.8942L58.0921 22.8093ZM62.4042 19.1612C62.5078 18.5699 62.6635 17.8099 62.763 16.9661L65.173 16.9373L64.76 19.2178H64.8146C65.6202 17.8591 67.1118 16.5775 69.5483 16.5487C69.7944 16.5455 70.2334 16.5969 70.7286 16.788L70.1793 19.1256C69.6846 18.9355 69.2732 18.8554 69.0818 18.8585C65.9061 18.8952 64.3848 22.4532 64.0489 24.2272L62.6768 31.295L60.1034 31.3259L62.4042 19.1612ZM71.5234 16.8614L74.0967 16.8315L71.3008 31.1923L68.7275 31.2232L71.5234 16.8614ZM74.9099 13.6192L72.0073 13.6532L72.5755 10.6682L75.4781 10.6342L74.9099 13.6192ZM84.3262 30.7854C82.9883 31.1384 81.5952 31.4076 80.1995 31.4239C76.8048 31.4647 73.7496 30.0961 73.6929 25.0396C73.648 21.0788 76.3071 16.468 81.2353 16.4093C84.6024 16.3701 86.5147 18.4269 86.5535 21.8252C86.5637 22.7805 86.4636 23.596 86.336 24.4409L76.5072 24.5567C76.4562 24.8538 76.4321 25.1553 76.4352 25.457C76.4689 28.4624 78.2857 29.3115 80.7774 29.2821C82.0638 29.268 83.4564 28.9139 84.7096 28.3655L84.3262 30.7854ZM83.9046 22.5024C83.9556 22.0808 83.9786 21.7435 83.9745 21.4056C83.9556 19.7206 82.9296 18.5249 80.9857 18.5474C78.8779 18.5731 77.2837 20.4738 76.7604 22.5873L83.9046 22.5024Z" fill="#CCCCCC"/>
<path fill-rule="evenodd" clip-rule="evenodd" d="M95.257 19.1089C94.5413 18.7517 93.4147 18.3997 92.4565 18.4113C91.334 18.4244 89.8592 18.7507 89.875 20.1842C89.9031 22.6271 94.6679 22.6832 94.7128 26.6722C94.7516 30.1281 91.6699 31.2877 89.4804 31.3134C87.2629 31.3401 86.4375 31.0405 85.3936 30.6875L85.8601 28.407C86.878 28.816 87.951 29.1968 89.0726 29.1832C90.4692 29.167 91.9961 28.5583 91.9767 26.9294C91.9496 24.4855 87.1817 24.1765 87.1409 20.553C87.1072 17.5188 90.0501 16.3041 92.3503 16.2769C93.5816 16.2622 94.845 16.5561 96.0002 17.0201L95.257 19.1089Z" fill="#CCCCCC"/>
</svg>
